<svg xmlns="http://www.w3.org/2000/svg" xmlns:xlink="http://www.w3.org/1999/xlink" width="500" zoomAndPan="magnify" viewBox="0 0 375 374.999991" height="500" preserveAspectRatio="xMidYMid meet" version="1.0"><rect x="-37.5" width="450" fill="#ffffff" y="-37.499999" height="449.999989" fill-opacity="1"/><rect x="-37.5" width="450" fill="#ffffff" y="-37.499999" height="449.999989" fill-opacity="1"/><path fill="#000000" d="M 0 104.53125 L 0 374.671875 C 14.691406 374.671875 46.558594 376.171875 57.78125 372.738281 C 67.0625 369.898438 74.394531 358.644531 79.6875 350.484375 C 82.066406 346.820312 82.777344 344.234375 88.421875 344.695312 L 91.230469 368.445312 C 91.382812 369.898438 91.503906 370.78125 91.929688 371.890625 C 93.207031 375.203125 91.289062 373.257812 94.007812 374.671875 L 300 374.671875 C 298.898438 372.660156 300.628906 374.265625 298.019531 372.292969 C 295.144531 370.125 281.820312 365.71875 278.464844 363.996094 C 273.234375 361.308594 275.214844 359.96875 268.128906 358.046875 C 260.917969 356.085938 251.148438 353.167969 244.515625 350.1875 C 235.011719 345.917969 241.769531 346.816406 236.230469 342.289062 C 231.882812 338.734375 219.332031 335.054688 213.046875 333.289062 C 194.882812 328.191406 178.683594 324.625 157.902344 324.628906 C 147.300781 324.632812 138.109375 324.363281 128.59375 322.144531 C 123.746094 321.015625 121.601562 318.84375 117.183594 317.519531 C 107.128906 314.507812 110.355469 320.414062 104.6875 319.578125 C 100.539062 312.480469 106.203125 312.179688 105.671875 303.140625 C 102.277344 301.128906 98.902344 301.117188 95.183594 299.46875 C 93.800781 295.265625 93.554688 289.023438 93.957031 284.003906 C 94.84375 272.871094 116.167969 270.90625 99.234375 252.40625 C 92.3125 244.84375 70.824219 222.128906 57.574219 229.34375 C 53.527344 243.039062 70.582031 253.289062 76.15625 261.472656 C 87.386719 277.960938 50.144531 273.164062 40.394531 273.460938 C 20.9375 274.046875 14.410156 268.042969 14.375 248.078125 C 14.363281 239.976562 12.8125 232.957031 11.824219 225.320312 C 10.882812 218.03125 8.855469 209.429688 9.804688 201.261719 C 11.847656 183.722656 17.871094 147.402344 42.019531 172.335938 C 54.894531 185.628906 62.875 207.109375 89.320312 189.84375 C 93.636719 187.027344 100.144531 181.628906 102.835938 177.589844 C 108.285156 169.398438 96.609375 169.527344 93.117188 163.683594 C 93.726562 161.640625 97.128906 157.203125 98.59375 155.039062 L 104.257812 146.832031 C 114.164062 146.4375 117.28125 156.019531 123.390625 155.933594 C 129.199219 155.851562 132.875 144.945312 134.277344 138.726562 L 129.527344 136.777344 C 131.773438 135.152344 140.746094 126.644531 138.109375 121.109375 C 134.847656 117.34375 128.484375 115.175781 121.921875 114.464844 C 91.554688 111.164062 81.628906 121.988281 61.722656 122.484375 C 34.71875 123.160156 35.316406 108.644531 19.496094 106.570312 C 13.574219 105.789062 12.515625 107.878906 11.773438 102.777344 C 10.660156 95.144531 4.894531 97.664062 2.613281 100.960938 Z M 34.050781 345.710938 C 35.382812 348.742188 42.214844 355.039062 47.890625 351.777344 C 52.425781 349.167969 53.832031 340.589844 52.125 335.519531 C 44.210938 334.195312 34.503906 344.613281 34.050781 345.710938 Z M 43.386719 300.9375 C 30.117188 306.53125 34.113281 303.496094 18.535156 312.847656 C 17.285156 313.597656 7.535156 319.15625 9.734375 319.886719 C 11.5625 320.496094 11.761719 318.722656 16.425781 321.152344 C 27.136719 326.734375 46.539062 323.503906 53.75 317.21875 C 63.136719 309.035156 58.023438 294.769531 43.386719 300.9375 Z M 43.386719 300.9375 " fill-opacity="1" fill-rule="evenodd"/><path fill="#000000" d="M 183.796875 0 L 41.734375 0 C 42.847656 1.910156 52.722656 7.398438 55.082031 6.59375 C 60.578125 2.597656 58.1875 2.460938 66.855469 3.03125 C 73.457031 3.464844 81.265625 2.789062 80.933594 6.273438 C 80.710938 8.613281 78.871094 9.328125 78.230469 14.339844 C 85.777344 12.167969 91.867188 0.0625 102.820312 3.089844 C 104.722656 7.023438 103.785156 7.183594 104.097656 11.867188 C 111.332031 14.523438 116.820312 9.902344 121.765625 5.707031 C 128.085938 0.34375 135.210938 8.476562 138.324219 11.492188 C 150.714844 23.484375 146.964844 33.476562 150.238281 52.449219 C 152.742188 66.972656 158.875 81.179688 159.1875 96.148438 C 159.597656 115.84375 157.664062 122.210938 157.390625 140.941406 C 157.289062 147.875 158.058594 146.234375 158.890625 147.109375 C 161.535156 136.722656 162.148438 124.722656 163.78125 113.109375 C 170.648438 64.21875 169.410156 84.644531 179.128906 50.414062 C 180.71875 44.804688 181.519531 40.445312 181.460938 33.765625 C 181.371094 23.015625 180.113281 21.472656 185.140625 17.617188 L 183.800781 0.00390625 Z M 183.796875 0 " fill-opacity="1" fill-rule="evenodd"/><path fill="#000000" d="M 0 1.421875 C 2.808594 4.230469 1.699219 6.25 4.40625 9.3125 C 7.519531 9.664062 12.9375 9.847656 15.96875 9.242188 C 20.660156 8.300781 19.738281 6.011719 22.765625 4.191406 C 26.449219 6.6875 29.082031 14.492188 32.351562 17.6875 C 32.984375 10.917969 31.902344 6.179688 31.695312 0 L 0 0 Z M 0 1.421875 " fill-opacity="1" fill-rule="evenodd"/></svg>